<svg id="Layer_1" data-name="Layer 1" xmlns="http://www.w3.org/2000/svg" viewBox="0 0 1080 1080"><defs><style>.cls-1{fill:#597582;}</style></defs><polygon class="cls-1" points="332.92 572.63 375.16 572.63 375.16 562.57 344.09 562.57 344.09 544.56 369.66 544.56 369.66 534.89 344.09 534.89 344.09 517.1 375.16 517.1 375.16 507.04 332.92 507.04 332.92 572.63"/><polygon class="cls-1" points="412.04 563.15 396.95 507.04 384.22 507.04 403.51 572.91 420.58 572.91 439.7 507.04 426.91 507.04 412.04 563.15"/><polygon class="cls-1" points="447.87 572.63 490.11 572.63 490.11 562.57 459.04 562.57 459.04 544.56 484.61 544.56 484.61 534.89 459.04 534.89 459.04 517.1 490.11 517.1 490.11 507.04 447.87 507.04 447.87 572.63"/><path class="cls-1" d="M549.06,535.25a20.15,20.15,0,0,0,2.09-9.65q0-8.83-5.51-13.7T529.3,507H501.62v65.59h11.56v-27h14.14l11.15,27h11.79l-12.45-28.46a23.33,23.33,0,0,0,5.75-2.78A16.86,16.86,0,0,0,549.06,535.25Zm-11.23-3.47a8.56,8.56,0,0,1-3.89,3.08,14.38,14.38,0,0,1-5.42,1H513.18v-19h13.51q6,0,9.31,2c2.2,1.34,3.31,3.77,3.31,7.29A9.77,9.77,0,0,1,537.83,531.78Z"/><path class="cls-1" d="M602.06,540.2a73.47,73.47,0,0,0-11.34-4.53q-5.12-1.68-9.17-3.23a21.11,21.11,0,0,1-6.36-3.55,6.59,6.59,0,0,1,1.55-11,22.18,22.18,0,0,1,9.53-1.84q6.29,0,10,2.28t3.75,7.34v2.56h11.51v-3.11a16.58,16.58,0,0,0-3.2-10.29,20,20,0,0,0-8.87-6.45,40,40,0,0,0-26-.11,20.11,20.11,0,0,0-8.75,6.09,14.84,14.84,0,0,0-3.2,9.59,15.33,15.33,0,0,0,2.9,9.47,22.76,22.76,0,0,0,7.69,6.43,64.57,64.57,0,0,0,10.59,4.39q5.34,1.6,9.42,3.25a21.72,21.72,0,0,1,6.4,3.69,6.39,6.39,0,0,1,2.3,4.9A6,6,0,0,1,597,562a25.36,25.36,0,0,1-10.14,1.73q-6.33,0-10.23-2.48c-2.59-1.64-3.89-4.25-3.89-7.81V550.9H561.2v2.72a18.59,18.59,0,0,0,3.15,11,19.2,19.2,0,0,0,8.83,6.72,36.19,36.19,0,0,0,13.48,2.28,39,39,0,0,0,13.51-2.11,19.53,19.53,0,0,0,8.89-6.17,17.06,17.06,0,0,0,.5-19.07A20.9,20.9,0,0,0,602.06,540.2Z"/><path class="cls-1" d="M667.12,510a34.19,34.19,0,0,0-31.68,0,27.57,27.57,0,0,0-11,11.37q-4,7.47-4,18.37t4,18.46a28.31,28.31,0,0,0,11,11.61,33.17,33.17,0,0,0,31.58,0,28.31,28.31,0,0,0,11-11.61q4-7.62,4-18.46t-4-18.37A27.57,27.57,0,0,0,667.12,510Zm.81,43.52a17,17,0,0,1-6.81,7.76,19.44,19.44,0,0,1-9.87,2.47,19.2,19.2,0,0,1-9.75-2.47,16.9,16.9,0,0,1-6.81-7.76q-2.51-5.28-2.5-13.78T634.66,526a16.22,16.22,0,0,1,6.81-7.56,20.15,20.15,0,0,1,9.78-2.36,20.38,20.38,0,0,1,9.84,2.34,16.1,16.1,0,0,1,6.84,7.53q2.51,5.19,2.5,13.81T667.93,553.56Z"/><polygon class="cls-1" points="735.58 563.9 710.56 507.04 691.94 507.04 691.94 572.63 703.45 572.63 703.45 515.89 728.29 572.63 747.08 572.63 747.08 507.04 735.58 507.04 735.58 563.9"/></svg>