<svg id="Layer_1" data-name="Layer 1" xmlns="http://www.w3.org/2000/svg" viewBox="0 0 1080 1080"><defs><style>.cls-1{fill:#0b0b0b;}.cls-2{fill:#fff;}</style></defs><rect class="cls-1" width="1080" height="1080"/><rect class="cls-2" x="245.36" y="573.13" width="126.03" height="16.2"/><path class="cls-2" d="M329,545.58h-1.1l1.85-1.86,28.88-28.87L347.2,503.4l-30.73,30.72V490.67h-16.2v42.94l-30.78-30.26L258.13,514.9l30.25,29.74,1,.94h-44v16.2h42.35c7.71-.27,12.57-6.76,19.05-9.46,7-2.7,10.8,7,17.6,8.87a14.61,14.61,0,0,0,4.67.59h42.35v-16.2Z"/><polygon class="cls-2" points="420.48 572.98 462.73 572.98 462.73 562.91 431.65 562.91 431.65 544.91 457.22 544.91 457.22 535.24 431.65 535.24 431.65 517.45 462.73 517.45 462.73 507.39 420.48 507.39 420.48 572.98"/><polygon class="cls-2" points="499.61 563.5 484.51 507.39 471.79 507.39 491.07 573.25 508.14 573.25 527.26 507.39 514.48 507.39 499.61 563.5"/><polygon class="cls-2" points="535.43 572.98 577.68 572.98 577.68 562.91 546.6 562.91 546.6 544.91 572.17 544.91 572.17 535.24 546.6 535.24 546.6 517.45 577.68 517.45 577.68 507.39 535.43 507.39 535.43 572.98"/><path class="cls-2" d="M636.62,535.6a20.15,20.15,0,0,0,2.09-9.65q0-8.84-5.51-13.7t-16.34-4.86H589.18V573h11.56V546h14.14L626,573h11.79l-12.44-28.47a23,23,0,0,0,5.74-2.77A16.86,16.86,0,0,0,636.62,535.6Zm-11.23-3.48a8.47,8.47,0,0,1-3.89,3.09,14.38,14.38,0,0,1-5.42,1H600.74v-19h13.51q6,0,9.31,2c2.2,1.34,3.31,3.76,3.31,7.28A9.75,9.75,0,0,1,625.39,532.12Z"/><path class="cls-2" d="M689.62,540.54A74.49,74.49,0,0,0,678.28,536q-5.12-1.66-9.17-3.22a21.36,21.36,0,0,1-6.36-3.56,6.58,6.58,0,0,1,1.55-11,22.08,22.08,0,0,1,9.54-1.84q6.27,0,10,2.28t3.75,7.34v2.56h11.51v-3.12a16.53,16.53,0,0,0-3.2-10.28,19.9,19.9,0,0,0-8.86-6.45,40,40,0,0,0-26-.11,20.09,20.09,0,0,0-8.76,6.09,14.8,14.8,0,0,0-3.19,9.58,15.33,15.33,0,0,0,2.89,9.48,22.56,22.56,0,0,0,7.7,6.42,62.42,62.42,0,0,0,10.58,4.39q5.34,1.62,9.43,3.25a22,22,0,0,1,6.39,3.7,6.34,6.34,0,0,1,2.31,4.89,6,6,0,0,1-3.92,6,25.42,25.42,0,0,1-10.15,1.72q-6.33,0-10.23-2.47t-3.89-7.81v-2.56h-11.5V554a18.53,18.53,0,0,0,3.14,11,19.18,19.18,0,0,0,8.84,6.73A36.16,36.16,0,0,0,674.23,574a39.17,39.17,0,0,0,13.5-2.11,19.55,19.55,0,0,0,8.9-6.18,17,17,0,0,0,.5-19.06A21,21,0,0,0,689.62,540.54Z"/><path class="cls-2" d="M754.69,510.39a34.22,34.22,0,0,0-31.69,0,27.51,27.51,0,0,0-11,11.37q-4,7.47-4,18.37t4,18.45a28.3,28.3,0,0,0,11,11.62,33.15,33.15,0,0,0,31.57,0,28.3,28.3,0,0,0,11-11.62q4-7.61,4-18.45t-4-18.37A27.49,27.49,0,0,0,754.69,510.39Zm.8,43.52a16.93,16.93,0,0,1-6.81,7.75,19.34,19.34,0,0,1-9.86,2.48,19.12,19.12,0,0,1-9.76-2.48,16.93,16.93,0,0,1-6.81-7.75q-2.5-5.28-2.5-13.78t2.47-13.76a16.12,16.12,0,0,1,6.81-7.56,21.69,21.69,0,0,1,19.62,0,16.2,16.2,0,0,1,6.84,7.53q2.5,5.21,2.5,13.82T755.49,553.91Z"/><polygon class="cls-2" points="823.14 564.24 798.12 507.39 779.5 507.39 779.5 572.98 791.01 572.98 791.01 516.24 815.86 572.98 834.64 572.98 834.64 507.39 823.14 507.39 823.14 564.24"/></svg>